<?xml version="1.0" encoding="UTF-8" standalone="no"?>
<!DOCTYPE svg PUBLIC "-//W3C//DTD SVG 1.1//EN"
 "http://www.w3.org/Graphics/SVG/1.1/DTD/svg11.dtd">
<!-- Generated by graphviz version 2.46.0 (20210118.1747)
 -->
<!-- Title: main Pages: 1 -->
<svg width="313pt" height="142pt"
 viewBox="0.00 0.00 313.00 142.00" xmlns="http://www.w3.org/2000/svg" xmlns:xlink="http://www.w3.org/1999/xlink">
<g id="graph0" class="graph" transform="scale(1 1) rotate(0) translate(4 138)">
<title>main</title>
<polygon fill="white" stroke="transparent" points="-4,4 -4,-138 309,-138 309,4 -4,4"/>
<!-- Node1 -->
<g id="node1" class="node">
<title>Node1</title>
<g id="a_node1"><a xlink:title="Main function.">
<polygon fill="#bfbfbf" stroke="black" points="0,-38.5 0,-57.5 38,-57.5 38,-38.5 0,-38.5"/>
<text text-anchor="middle" x="19" y="-45.5" font-family="Helvetica,sans-Serif" font-size="10.00">main</text>
</a>
</g>
</g>
<!-- Node2 -->
<g id="node2" class="node">
<title>Node2</title>
<g id="a_node2"><a xlink:href="../../db/de2/naval__battle_8c.html#a3f7d3dc5931fba6164e73057859094d9" target="_top" xlink:title="Function positionBoat Responsible for placing the boats on the board, according to the size.">
<polygon fill="white" stroke="black" points="80,-76.5 80,-95.5 151,-95.5 151,-76.5 80,-76.5"/>
<text text-anchor="middle" x="115.5" y="-83.5" font-family="Helvetica,sans-Serif" font-size="10.00">positionBoat</text>
</a>
</g>
</g>
<!-- Node1&#45;&gt;Node2 -->
<g id="edge1" class="edge">
<title>Node1&#45;&gt;Node2</title>
<path fill="none" stroke="midnightblue" d="M38.22,-55.33C50.34,-60.2 66.61,-66.74 81.01,-72.53"/>
<polygon fill="midnightblue" stroke="midnightblue" points="80.02,-75.91 90.61,-76.39 82.64,-69.41 80.02,-75.91"/>
</g>
<!-- Node5 -->
<g id="node5" class="node">
<title>Node5</title>
<g id="a_node5"><a xlink:href="../../db/de2/naval__battle_8c.html#a5c84d83e31ca6a320b6ea8081402686a" target="_top" xlink:title="Function printPositioning Responsible for printing messages for positioning boats on the board; of pl...">
<polygon fill="white" stroke="black" points="74,-38.5 74,-57.5 157,-57.5 157,-38.5 74,-38.5"/>
<text text-anchor="middle" x="115.5" y="-45.5" font-family="Helvetica,sans-Serif" font-size="10.00">printPositioning</text>
</a>
</g>
</g>
<!-- Node1&#45;&gt;Node5 -->
<g id="edge4" class="edge">
<title>Node1&#45;&gt;Node5</title>
<path fill="none" stroke="midnightblue" d="M38.22,-48C45.55,-48 54.39,-48 63.43,-48"/>
<polygon fill="midnightblue" stroke="midnightblue" points="63.63,-51.5 73.63,-48 63.63,-44.5 63.63,-51.5"/>
</g>
<!-- Node7 -->
<g id="node7" class="node">
<title>Node7</title>
<g id="a_node7"><a xlink:href="../../db/de2/naval__battle_8c.html#ad527fa96e729742a231c4535e112526a" target="_top" xlink:title="Function printsTray Responsible for printing the visual board for the user.">
<polygon fill="white" stroke="black" points="85.5,-0.5 85.5,-19.5 145.5,-19.5 145.5,-0.5 85.5,-0.5"/>
<text text-anchor="middle" x="115.5" y="-7.5" font-family="Helvetica,sans-Serif" font-size="10.00">printsTray</text>
</a>
</g>
</g>
<!-- Node1&#45;&gt;Node7 -->
<g id="edge6" class="edge">
<title>Node1&#45;&gt;Node7</title>
<path fill="none" stroke="midnightblue" d="M38.22,-40.67C50.34,-35.8 66.61,-29.26 81.01,-23.47"/>
<polygon fill="midnightblue" stroke="midnightblue" points="82.64,-26.59 90.61,-19.61 80.02,-20.09 82.64,-26.59"/>
</g>
<!-- Node3 -->
<g id="node3" class="node">
<title>Node3</title>
<g id="a_node3"><a xlink:href="../../db/de2/naval__battle_8c.html#a4a5686c91f144d07eff1c6576303962d" target="_top" xlink:title="Function validatePosition Responsible for checking if the position can receive the boat.">
<polygon fill="white" stroke="black" points="206,-114.5 206,-133.5 292,-133.5 292,-114.5 206,-114.5"/>
<text text-anchor="middle" x="249" y="-121.5" font-family="Helvetica,sans-Serif" font-size="10.00">validatePosition</text>
</a>
</g>
</g>
<!-- Node2&#45;&gt;Node3 -->
<g id="edge2" class="edge">
<title>Node2&#45;&gt;Node3</title>
<path fill="none" stroke="midnightblue" d="M149.68,-95.59C166.5,-100.45 187.13,-106.41 205.13,-111.61"/>
<polygon fill="midnightblue" stroke="midnightblue" points="204.25,-115 214.83,-114.41 206.19,-108.28 204.25,-115"/>
</g>
<!-- Node4 -->
<g id="node4" class="node">
<title>Node4</title>
<g id="a_node4"><a xlink:href="../../db/de2/naval__battle_8c.html#a7c5042bd35c4186b06ae28f06635b40e" target="_top" xlink:title="Function validEntryLineColumn Responsible for validating entries, for positioning boats.">
<polygon fill="white" stroke="black" points="193,-76.5 193,-95.5 305,-95.5 305,-76.5 193,-76.5"/>
<text text-anchor="middle" x="249" y="-83.5" font-family="Helvetica,sans-Serif" font-size="10.00">validEntryLineColumn</text>
</a>
</g>
</g>
<!-- Node2&#45;&gt;Node4 -->
<g id="edge3" class="edge">
<title>Node2&#45;&gt;Node4</title>
<path fill="none" stroke="midnightblue" d="M151.05,-86C160.84,-86 171.83,-86 182.8,-86"/>
<polygon fill="midnightblue" stroke="midnightblue" points="182.83,-89.5 192.83,-86 182.83,-82.5 182.83,-89.5"/>
</g>
<!-- Node6 -->
<g id="node6" class="node">
<title>Node6</title>
<g id="a_node6"><a xlink:href="../../db/de2/naval__battle_8c.html#a521043b369238e618dcc9364b40448ef" target="_top" xlink:title="Functions printMessage and printMessageScore Responsible for printing the score messages.">
<polygon fill="white" stroke="black" points="211.5,-38.5 211.5,-57.5 286.5,-57.5 286.5,-38.5 211.5,-38.5"/>
<text text-anchor="middle" x="249" y="-45.5" font-family="Helvetica,sans-Serif" font-size="10.00">printMessage</text>
</a>
</g>
</g>
<!-- Node5&#45;&gt;Node6 -->
<g id="edge5" class="edge">
<title>Node5&#45;&gt;Node6</title>
<path fill="none" stroke="midnightblue" d="M157.03,-48C170.99,-48 186.75,-48 201.18,-48"/>
<polygon fill="midnightblue" stroke="midnightblue" points="201.4,-51.5 211.4,-48 201.4,-44.5 201.4,-51.5"/>
</g>
<!-- Node8 -->
<g id="node8" class="node">
<title>Node8</title>
<g id="a_node8"><a xlink:href="../../db/de2/naval__battle_8c.html#a3889e1ee574e03ffdde8804180d57543" target="_top" xlink:title="Function printTable Responsible for printing the board.">
<polygon fill="white" stroke="black" points="219.5,-0.5 219.5,-19.5 278.5,-19.5 278.5,-0.5 219.5,-0.5"/>
<text text-anchor="middle" x="249" y="-7.5" font-family="Helvetica,sans-Serif" font-size="10.00">printTable</text>
</a>
</g>
</g>
<!-- Node7&#45;&gt;Node8 -->
<g id="edge7" class="edge">
<title>Node7&#45;&gt;Node8</title>
<path fill="none" stroke="midnightblue" d="M145.68,-10C164.37,-10 188.83,-10 209.15,-10"/>
<polygon fill="midnightblue" stroke="midnightblue" points="209.35,-13.5 219.35,-10 209.35,-6.5 209.35,-13.5"/>
</g>
</g>
</svg>
